<svg width="48" height="48" viewBox="0 0 48 48" fill="none" xmlns="http://www.w3.org/2000/svg">
<rect width="48" height="48" rx="8" fill="#D33939"/>
<path fill-rule="evenodd" clip-rule="evenodd" d="M17.375 14.5625C17.375 12.4914 19.0539 10.8125 21.125 10.8125H24.875C26.9461 10.8125 28.625 12.4914 28.625 14.5625V14.8187C29.7906 14.9254 30.9468 15.065 32.0925 15.2364C33.9101 15.5084 35.1875 17.0895 35.1875 18.8821V22.6736C35.1875 24.1875 34.2705 25.6141 32.7671 26.1139C29.6957 27.135 26.4115 27.6875 23 27.6875C19.5886 27.6875 16.3043 27.135 13.2328 26.1139C11.7296 25.614 10.8125 24.1875 10.8125 22.6736V18.8821C10.8125 17.0895 12.0899 15.5084 13.9074 15.2364C15.0532 15.065 16.2094 14.9254 17.375 14.8187V14.5625ZM26.75 14.5625V14.676C25.5096 14.6007 24.2592 14.5625 23 14.5625C21.7409 14.5625 20.4904 14.6007 19.25 14.676V14.5625C19.25 13.527 20.0895 12.6875 21.125 12.6875H24.875C25.9105 12.6875 26.75 13.527 26.75 14.5625ZM23 24.875C23.5177 24.875 23.9375 24.4552 23.9375 23.9375C23.9375 23.4198 23.5177 23 23 23C22.4823 23 22.0625 23.4198 22.0625 23.9375C22.0625 24.4552 22.4823 24.875 23 24.875Z" fill="#F4F4F4"/>
<path d="M11.75 31V27.5049C12.0288 27.6579 12.3262 27.7884 12.6413 27.8931C15.9011 28.9769 19.385 29.5625 23 29.5625C26.615 29.5625 30.0989 28.9769 33.3588 27.8931C33.6737 27.7884 33.9713 27.6579 34.25 27.505V31C34.25 32.8149 32.941 34.4094 31.0961 34.6543C28.4469 35.006 25.7444 35.1875 23 35.1875C20.2556 35.1875 17.5531 35.006 14.9039 34.6543C13.059 34.4094 11.75 32.8149 11.75 31Z" fill="#F4F4F4"/>
</svg>
