<svg width="49" height="49" viewBox="0 0 49 49" fill="none" xmlns="http://www.w3.org/2000/svg">
<rect x="0.5" y="0.876099" width="48" height="48" rx="4" fill="#D33939"/>
<path d="M27.2302 15.3203C26.5927 15.1366 25.9289 15.5079 25.7451 16.1454L20.9447 32.9467C20.761 33.5843 21.1322 34.2481 21.7698 34.4318C22.4073 34.6156 23.0711 34.2443 23.2549 33.6068L28.0553 16.8055C28.239 16.1679 27.8678 15.5041 27.2302 15.3203ZM30.253 19.8245C29.7842 20.2932 29.7842 21.0545 30.253 21.5233L33.602 24.8761L30.2492 28.2289C29.7804 28.6976 29.7804 29.459 30.2492 29.9277C30.718 30.3965 31.4793 30.3965 31.9481 29.9277L36.1484 25.7274C36.6172 25.2586 36.6172 24.4973 36.1484 24.0285L31.9481 19.8282C31.4793 19.3594 30.718 19.3594 30.2492 19.8282L30.253 19.8245ZM18.7508 19.8245C18.282 19.3557 17.5207 19.3557 17.0519 19.8245L12.8516 24.0248C12.3828 24.4936 12.3828 25.2549 12.8516 25.7237L17.0519 29.924C17.5207 30.3928 18.282 30.3928 18.7508 29.924C19.2196 29.4552 19.2196 28.6939 18.7508 28.2251L15.398 24.8761L18.7508 21.5233C19.2196 21.0545 19.2196 20.2932 18.7508 19.8245Z" fill="#F4F4F4"/>
</svg>
