<svg width="40" height="41" viewBox="0 0 40 41" fill="none" xmlns="http://www.w3.org/2000/svg">
<rect width="40" height="40.7742" rx="4" fill="#292828"/>
<path d="M16.0274 27.2291C16.0274 27.3259 15.9161 27.4033 15.7758 27.4033C15.6161 27.4179 15.5048 27.3404 15.5048 27.2291C15.5048 27.1324 15.6161 27.0549 15.7565 27.0549C15.9016 27.0404 16.0274 27.1179 16.0274 27.2291ZM14.5226 27.0114C14.4887 27.1082 14.5855 27.2195 14.7306 27.2485C14.8565 27.2969 15.0016 27.2485 15.0306 27.1517C15.0597 27.0549 14.9677 26.9437 14.8226 26.9001C14.6968 26.8662 14.5565 26.9146 14.5226 27.0114ZM16.6613 26.9291C16.521 26.963 16.4242 27.0549 16.4387 27.1662C16.4532 27.263 16.579 27.3259 16.7242 27.292C16.8645 27.2582 16.9613 27.1662 16.9468 27.0695C16.9323 26.9775 16.8016 26.9146 16.6613 26.9291ZM19.8452 8.38721C13.1339 8.38721 8 13.4824 8 20.1937C8 25.5598 11.3774 30.1517 16.2016 31.7679C16.821 31.8791 17.0387 31.4969 17.0387 31.1824C17.0387 30.8824 17.0242 29.2275 17.0242 28.2114C17.0242 28.2114 13.6371 28.9372 12.9258 26.7695C12.9258 26.7695 12.3742 25.3614 11.5806 24.9985C11.5806 24.9985 10.4726 24.2388 11.6581 24.2533C11.6581 24.2533 12.8629 24.3501 13.5258 25.5017C14.5855 27.3695 16.3613 26.8324 17.0532 26.513C17.1645 25.7388 17.479 25.2017 17.8274 24.8824C15.1226 24.5824 12.3935 24.1904 12.3935 19.5356C12.3935 18.2049 12.7613 17.5372 13.5355 16.6856C13.4097 16.3711 12.9984 15.0743 13.6613 13.4001C14.6726 13.0856 17 14.7066 17 14.7066C17.9677 14.4356 19.0081 14.2953 20.0387 14.2953C21.0694 14.2953 22.1097 14.4356 23.0774 14.7066C23.0774 14.7066 25.4048 13.0808 26.4161 13.4001C27.079 15.0791 26.6677 16.3711 26.5419 16.6856C27.3161 17.542 27.7903 18.2098 27.7903 19.5356C27.7903 24.2049 24.9403 24.5775 22.2355 24.8824C22.6806 25.2646 23.0581 25.9904 23.0581 27.1275C23.0581 28.7582 23.0435 30.7759 23.0435 31.1727C23.0435 31.4872 23.2661 31.8695 23.8806 31.7582C28.7194 30.1517 32 25.5598 32 20.1937C32 13.4824 26.5565 8.38721 19.8452 8.38721ZM12.7032 25.0759C12.6403 25.1243 12.6548 25.2356 12.7371 25.3275C12.8145 25.4049 12.9258 25.4388 12.9887 25.3759C13.0516 25.3275 13.0371 25.2162 12.9548 25.1243C12.8774 25.0469 12.7661 25.013 12.7032 25.0759ZM12.1806 24.684C12.1468 24.7469 12.1952 24.8243 12.2919 24.8727C12.3694 24.9211 12.4661 24.9066 12.5 24.8388C12.5339 24.7759 12.4855 24.6985 12.3887 24.6501C12.2919 24.6211 12.2145 24.6356 12.1806 24.684ZM13.7484 26.4066C13.671 26.4695 13.7 26.6146 13.8113 26.7066C13.9226 26.8179 14.0629 26.8324 14.1258 26.7549C14.1887 26.692 14.1597 26.5469 14.0629 26.4549C13.9565 26.3437 13.8113 26.3291 13.7484 26.4066ZM13.1968 25.6953C13.1194 25.7437 13.1194 25.8695 13.1968 25.9808C13.2742 26.092 13.4048 26.1404 13.4677 26.092C13.5452 26.0291 13.5452 25.9033 13.4677 25.792C13.4 25.6808 13.2742 25.6324 13.1968 25.6953Z" fill="#BFBEBE"/>
</svg>
