<svg width="48" height="48" viewBox="0 0 48 48" fill="none" xmlns="http://www.w3.org/2000/svg">
<rect width="48" height="48" rx="8" fill="#D33939"/>
<path d="M23.7285 9.29546C23.9084 9.26093 24.0941 9.26093 24.274 9.29546L35.88 11.5973C36.53 11.7239 37 12.2936 37 12.9497C37 13.6057 36.53 14.1754 35.88 14.302L31.4291 15.1882V18.4741C31.4291 22.5426 28.104 25.84 24.0013 25.84C19.8986 25.84 16.5735 22.5426 16.5735 18.4741V15.1882L13.788 14.6358V18.382L14.6991 22.8937C14.7513 23.1641 14.6817 23.4461 14.5076 23.659C14.3335 23.872 14.0666 23.9986 13.788 23.9986H11.9311C11.6525 23.9986 11.3914 23.8777 11.2115 23.659C11.0316 23.4404 10.962 23.1641 11.02 22.8937L11.9311 18.382V14.2502C11.3798 14.0603 11.0026 13.5424 11.0026 12.9497C11.0026 12.2936 11.4726 11.7239 12.1226 11.5973L23.7285 9.29546ZM17.4961 28.1246C18.1054 27.929 18.7612 28.1476 19.2022 28.6138L23.3223 32.9585C23.6879 33.3441 24.3089 33.3441 24.6744 32.9585L28.7946 28.6138C29.2356 28.1476 29.8913 27.929 30.5006 28.1246C34.2726 29.3273 37 32.8262 37 36.9637C37 37.942 36.1992 38.7304 35.2185 38.7304H12.7841C11.8034 38.7304 11.0026 37.9363 11.0026 36.9637C11.0026 32.8262 13.73 29.3273 17.4961 28.1246Z" fill="#F4F4F4"/>
</svg>
