<svg width="40" height="41" viewBox="0 0 40 41" fill="none" xmlns="http://www.w3.org/2000/svg">
<rect y="0.387207" width="40" height="40" rx="4" fill="#292828"/>
<path d="M20.8775 17.4248H17.6188V29.2111H20.9938V23.8111C20.9938 22.3786 21.2638 21.0023 23.03 21.0023C24.7963 21.0023 24.8 22.6298 24.8 23.9011V29.2111H28.175V23.1848C28.175 20.2748 27.5563 17.5898 24.1213 17.5898C22.8538 17.5411 21.6275 17.7736 20.945 18.8086C20.9411 18.8178 20.9339 18.8254 20.9248 18.8297C20.9157 18.8341 20.9054 18.835 20.8957 18.8322C20.886 18.8294 20.8776 18.8232 20.8722 18.8147C20.8668 18.8062 20.8647 18.796 20.8663 18.7861L20.8775 17.4248Z" stroke="#BFBEBE" stroke-width="1.125" stroke-linecap="round"/>
<path d="M12.095 17.4248H15.5V29.2111H12.095V17.4248Z" stroke="#BFBEBE" stroke-width="1.125" stroke-linecap="round"/>
<path d="M13.79 11.5635C13.3991 11.562 13.0166 11.6765 12.6908 11.8924C12.365 12.1083 12.1105 12.416 11.9596 12.7765C11.8086 13.1371 11.768 13.5343 11.8428 13.9179C11.9176 14.3016 12.1045 14.6544 12.3798 14.9318C12.6551 15.2093 13.0066 15.3988 13.3896 15.4765C13.7727 15.5542 14.1702 15.5166 14.5319 15.3684C14.8935 15.2202 15.2031 14.9681 15.4215 14.6439C15.6399 14.3197 15.7573 13.9381 15.7588 13.5472C15.7607 13.2874 15.7113 13.0298 15.6132 12.7892C15.5152 12.5486 15.3705 12.3298 15.1875 12.1454C15.0044 11.961 14.7867 11.8147 14.5469 11.7148C14.3071 11.6149 14.0498 11.5635 13.79 11.5635Z" stroke="#BFBEBE" stroke-width="1.125" stroke-linecap="round"/>
</svg>
