<svg width="49" height="49" viewBox="0 0 49 49" fill="none" xmlns="http://www.w3.org/2000/svg">
<rect x="0.5" y="0.876099" width="48" height="48" rx="4" fill="#D33939"/>
<path d="M35.2535 24.9449C35.2667 24.9139 35.2735 24.8806 35.2735 24.8469C35.2735 24.8132 35.2667 24.7799 35.2535 24.7489C34.7831 23.862 31.0886 17.1395 24.5768 16.9778C18.0649 16.8161 14.2871 23.7248 13.758 24.7244C13.7373 24.7601 13.7264 24.8007 13.7264 24.842C13.7264 24.8833 13.7373 24.9238 13.758 24.9596C14.3361 25.9052 18.3785 32.2701 23.44 32.7356C29.0209 33.2256 33.5483 29.3057 35.2535 24.9449Z" stroke="white" stroke-width="1.95993"/>
<path d="M24.35 28.6489C26.2581 28.6489 27.805 27.1271 27.805 25.2499C27.805 23.3726 26.2581 21.8508 24.35 21.8508C22.4418 21.8508 20.895 23.3726 20.895 25.2499C20.895 27.1271 22.4418 28.6489 24.35 28.6489Z" stroke="white" stroke-width="1.95993"/>
</svg>
